<svg width="260" height="303" viewBox="0 0 260 303" fill="none" xmlns="http://www.w3.org/2000/svg">
<mask id="path-1-inside-1_32_215" fill="white">
<path d="M205.243 161.602C205.628 203.067 241.601 216.865 242 217.042C241.696 218.015 236.252 236.706 223.047 256.012C211.632 272.704 199.785 289.334 181.123 289.678C162.785 290.016 156.888 278.799 135.922 278.799C114.963 278.799 108.412 289.334 91.0526 290.016C73.0383 290.698 59.3207 271.967 47.8109 255.337C24.2922 221.319 6.31895 159.21 30.4524 117.286C42.4414 96.4661 63.8666 83.2821 87.1218 82.944C104.811 82.6065 121.508 94.8506 132.322 94.8506C143.129 94.8506 163.419 80.126 184.75 82.2885C193.679 82.6603 218.745 85.8972 234.84 109.468C233.543 110.272 204.932 126.936 205.243 161.602M170.779 59.7827C180.343 48.2006 186.78 32.0772 185.023 16.0345C171.238 16.5888 154.568 25.2251 144.68 36.8009C135.818 47.0518 128.057 63.459 130.151 79.1841C145.517 80.3735 161.214 71.3722 170.779 59.7827"/>
</mask>
<path d="M242 217.042L244.863 217.937L245.662 215.38L243.213 214.298L242 217.042ZM223.047 256.012L220.571 254.319L220.571 254.319L223.047 256.012ZM181.123 289.678L181.178 292.678H181.178L181.123 289.678ZM91.0526 290.016L91.1661 293.014L91.1705 293.014L91.0526 290.016ZM47.8109 255.337L45.3432 257.043L45.3441 257.044L47.8109 255.337ZM30.4524 117.286L27.8526 115.789L27.8524 115.789L30.4524 117.286ZM87.1218 82.944L87.1654 85.9438L87.179 85.9435L87.1218 82.944ZM184.75 82.2885L184.447 85.2731L184.536 85.2821L184.625 85.2859L184.75 82.2885ZM234.84 109.468L236.421 112.017L239.085 110.365L237.318 107.776L234.84 109.468ZM185.023 16.0345L188.006 15.708L187.701 12.9244L184.903 13.0369L185.023 16.0345ZM144.68 36.8009L146.949 38.7629L146.955 38.7562L146.961 38.7494L144.68 36.8009ZM130.151 79.1841L127.178 79.5801L127.498 81.9877L129.92 82.1752L130.151 79.1841ZM202.243 161.63C202.444 183.336 211.998 197.886 221.548 206.978C226.305 211.507 231.058 214.682 234.652 216.739C236.452 217.77 237.968 218.524 239.058 219.03C240.068 219.499 240.934 219.85 240.787 219.786L243.213 214.298C242.733 214.085 208.608 200.977 208.243 161.574L202.243 161.63ZM239.137 216.147C238.849 217.067 233.511 235.399 220.571 254.319L225.524 257.706C238.993 238.012 244.543 218.962 244.863 217.937L239.137 216.147ZM220.571 254.319C214.835 262.706 209.196 270.759 202.754 276.784C196.371 282.755 189.419 286.525 181.067 286.679L181.178 292.678C191.489 292.488 199.792 287.77 206.852 281.166C213.853 274.618 219.845 266.01 225.524 257.706L220.571 254.319ZM181.067 286.679C172.612 286.835 167.088 284.375 160.699 281.612C154.219 278.81 147.04 275.799 135.922 275.799V281.799C145.771 281.799 152.022 284.396 158.317 287.119C164.702 289.88 171.295 292.86 181.178 292.678L181.067 286.679ZM135.922 275.799C124.848 275.799 117.533 278.612 110.969 281.389C104.453 284.145 98.9771 286.703 90.9348 287.019L91.1705 293.014C100.487 292.648 106.966 289.597 113.306 286.915C119.597 284.253 126.037 281.799 135.922 281.799V275.799ZM90.9391 287.019C83.08 287.316 75.8943 283.403 69.0446 276.98C62.1902 270.553 56.0496 261.969 50.2777 253.629L45.3441 257.044C51.082 265.334 57.5551 274.432 64.9405 281.357C72.3307 288.287 81.011 293.399 91.1661 293.014L90.9391 287.019ZM50.2786 253.63C38.7668 236.98 28.5584 213.353 24.2164 188.755C19.8702 164.133 21.4621 138.917 33.0524 118.783L27.8524 115.789C15.3093 137.579 13.821 164.38 18.3078 189.798C22.7987 215.239 33.3363 239.676 45.3432 257.043L50.2786 253.63ZM33.0522 118.783C44.549 98.8178 65.0368 86.2654 87.1654 85.9437L87.0782 79.9444C62.6964 80.2988 40.3338 94.1143 27.8526 115.789L33.0522 118.783ZM87.179 85.9435C95.3752 85.7871 103.481 88.55 111.21 91.5655C114.987 93.0392 118.773 94.612 122.22 95.7832C125.663 96.9533 129.113 97.8506 132.322 97.8506V91.8506C130.124 91.8506 127.432 91.2173 124.15 90.1022C120.872 88.9882 117.351 87.521 113.391 85.9759C105.645 82.9538 96.558 79.7634 87.0646 79.9446L87.179 85.9435ZM132.322 97.8506C135.59 97.8506 139.314 96.7604 143.086 95.4075C146.798 94.0765 151.321 92.1892 155.644 90.5673C164.662 87.1834 174.513 84.266 184.447 85.2731L185.052 79.3037C173.656 78.1484 162.697 81.5121 153.536 84.9498C148.768 86.7388 144.859 88.3975 141.061 89.7597C137.323 91.1001 134.458 91.8506 132.322 91.8506V97.8506ZM184.625 85.2859C193.219 85.6437 217.071 88.7664 232.363 111.159L237.318 107.776C220.418 83.028 194.14 79.6768 184.874 79.291L184.625 85.2859ZM233.259 106.918C231.979 107.712 201.916 125.169 202.243 161.629L208.243 161.575C207.948 128.702 235.108 112.832 236.421 112.017L233.259 106.918ZM173.092 61.6929C183.05 49.6337 189.869 32.7282 188.006 15.708L182.041 16.3609C183.69 31.4261 177.635 46.7675 168.465 57.8725L173.092 61.6929ZM184.903 13.0369C170.18 13.6289 152.759 22.7236 142.399 34.8524L146.961 38.7494C156.377 27.7267 172.295 19.5487 185.144 19.0321L184.903 13.0369ZM142.41 34.839C133.211 45.4805 124.932 62.7161 127.178 79.5801L133.125 78.7881C131.183 64.2018 138.425 48.623 146.949 38.7629L142.41 34.839ZM129.92 82.1752C146.534 83.4612 163.105 73.7941 173.092 61.6922L168.465 57.8732C159.323 68.9502 144.5 77.2858 130.383 76.1931L129.92 82.1752Z" fill="white" mask="url(#path-1-inside-1_32_215)"/>
</svg>
