<svg width="223" height="274" viewBox="0 0 223 274" fill="none" xmlns="http://www.w3.org/2000/svg">
<mask id="path-1-inside-1_77_464" fill="white">
<path d="M186.243 145.568C186.628 187.032 222.601 200.831 223 201.007C222.696 201.98 217.252 220.671 204.047 239.978C192.632 256.669 180.785 273.299 162.123 273.644C143.785 273.982 137.888 262.764 116.922 262.764C95.9631 262.764 89.4116 273.299 72.0526 273.982C54.0383 274.664 40.3207 255.932 28.8109 239.302C5.29215 205.284 -12.681 143.176 11.4524 101.251C23.4414 80.4316 44.8666 67.2476 68.1218 66.9096C85.8114 66.572 102.508 78.8161 113.322 78.8161C124.129 78.8161 144.419 64.0915 165.75 66.254C174.679 66.6258 199.745 69.8627 215.84 93.4331C214.543 94.2374 185.932 110.901 186.243 145.568M151.779 43.7482C161.343 32.1661 167.78 16.0427 166.023 0C152.238 0.554318 135.568 9.19066 125.68 20.7664C116.818 31.0173 109.057 47.4245 111.151 63.1496C126.517 64.339 142.214 55.3377 151.779 43.7482"/>
</mask>
<path d="M223 201.007L225.863 201.902L226.662 199.346L224.213 198.263L223 201.007ZM204.047 239.978L201.571 238.284L201.571 238.284L204.047 239.978ZM162.123 273.644L162.178 276.643H162.178L162.123 273.644ZM72.0526 273.982L72.1661 276.98L72.1705 276.98L72.0526 273.982ZM28.8109 239.302L26.3432 241.008L26.3441 241.009L28.8109 239.302ZM11.4524 101.251L8.85265 99.7543L8.85242 99.7547L11.4524 101.251ZM68.1218 66.9096L68.1654 69.9093L68.179 69.909L68.1218 66.9096ZM165.75 66.254L165.447 69.2387L165.536 69.2477L165.625 69.2514L165.75 66.254ZM215.84 93.4331L217.421 95.9825L220.085 94.3302L218.318 91.7413L215.84 93.4331ZM166.023 0L169.006 -0.326443L168.701 -3.11009L165.903 -2.99758L166.023 0ZM125.68 20.7664L127.949 22.7284L127.955 22.7217L127.961 22.7149L125.68 20.7664ZM111.151 63.1496L108.178 63.5456L108.498 65.9532L110.92 66.1407L111.151 63.1496ZM183.243 145.595C183.444 167.302 192.998 181.852 202.548 190.943C207.305 195.472 212.058 198.647 215.652 200.705C217.452 201.735 218.968 202.489 220.058 202.996C221.068 203.465 221.934 203.816 221.787 203.751L224.213 198.263C223.733 198.051 189.608 184.942 189.243 145.54L183.243 145.595ZM220.137 200.112C219.849 201.032 214.511 219.365 201.571 238.284L206.524 241.671C219.993 221.978 225.543 202.928 225.863 201.902L220.137 200.112ZM201.571 238.284C195.835 246.672 190.196 254.724 183.754 260.75C177.371 266.72 170.419 270.49 162.067 270.644L162.178 276.643C172.489 276.453 180.792 271.736 187.852 265.132C194.853 258.583 200.845 249.975 206.524 241.671L201.571 238.284ZM162.067 270.644C153.612 270.8 148.088 268.34 141.699 265.577C135.219 262.775 128.04 259.764 116.922 259.764V265.764C126.771 265.764 133.022 268.362 139.317 271.084C145.702 273.846 152.295 276.826 162.178 276.643L162.067 270.644ZM116.922 259.764C105.848 259.764 98.5327 262.577 91.9686 265.354C85.4531 268.11 79.9771 270.668 71.9348 270.984L72.1705 276.98C81.4871 276.613 87.9663 273.562 94.3062 270.88C100.597 268.219 107.037 265.764 116.922 265.764V259.764ZM71.9391 270.984C64.08 271.282 56.8943 267.369 50.0446 260.946C43.1902 254.518 37.0496 245.934 31.2777 237.595L26.3441 241.009C32.082 249.3 38.5551 258.397 45.9405 265.322C53.3307 272.252 62.011 277.364 72.1661 276.98L71.9391 270.984ZM31.2786 237.596C19.7668 220.945 9.55842 197.318 5.21641 172.72C0.870225 148.098 2.4621 122.883 14.0524 102.748L8.85242 99.7547C-3.69074 121.544 -5.17899 148.345 -0.692248 173.763C3.79867 199.205 14.3363 223.641 26.3432 241.008L31.2786 237.596ZM14.0522 102.748C25.549 82.7833 46.0368 70.2309 68.1654 69.9092L68.0782 63.9099C43.6964 64.2643 21.3338 78.0798 8.85265 99.7543L14.0522 102.748ZM68.179 69.909C76.3752 69.7526 84.4812 72.5155 92.2099 75.531C95.9869 77.0047 99.7733 78.5775 103.22 79.7487C106.663 80.9188 110.113 81.8161 113.322 81.8161V75.8161C111.124 75.8161 108.432 75.1828 105.15 74.0677C101.872 72.9537 98.3509 71.4866 94.3908 69.9414C86.6452 66.9193 77.558 63.7289 68.0646 63.9101L68.179 69.909ZM113.322 81.8161C116.59 81.8161 120.314 80.7259 124.086 79.3731C127.798 78.042 132.321 76.1547 136.644 74.5328C145.662 71.1489 155.513 68.2315 165.447 69.2387L166.052 63.2693C154.656 62.1139 143.697 65.4776 134.536 68.9153C129.768 70.7043 125.859 72.363 122.061 73.7252C118.323 75.0657 115.458 75.8161 113.322 75.8161V81.8161ZM165.625 69.2514C174.219 69.6092 198.071 72.7319 213.363 95.1248L218.318 91.7413C201.418 66.9935 175.14 63.6424 165.874 63.2566L165.625 69.2514ZM214.259 90.8836C212.979 91.6775 182.916 109.135 183.243 145.595L189.243 145.541C188.948 112.668 216.108 96.7973 217.421 95.9825L214.259 90.8836ZM154.092 45.6584C164.05 33.5992 170.869 16.6937 169.006 -0.326443L163.041 0.326443C164.69 15.3916 158.635 30.733 149.465 41.838L154.092 45.6584ZM165.903 -2.99758C151.18 -2.40558 133.759 6.68909 123.399 18.8179L127.961 22.7149C137.377 11.6922 153.295 3.51422 166.144 2.99758L165.903 -2.99758ZM123.41 18.8045C114.211 29.446 105.932 46.6817 108.178 63.5456L114.125 62.7536C112.183 48.1673 119.425 32.5886 127.949 22.7284L123.41 18.8045ZM110.92 66.1407C127.534 67.4267 144.105 57.7597 154.092 45.6577L149.465 41.8387C140.323 52.9157 125.5 61.2513 111.383 60.1586L110.92 66.1407Z" fill="white" mask="url(#path-1-inside-1_77_464)"/>
</svg>
