<svg width="664" height="483" viewBox="0 0 664 483" fill="none" xmlns="http://www.w3.org/2000/svg">
<g filter="url(#filter0_f_77_466)">
<rect x="83" y="370" width="498" height="30" rx="15" fill="#00C2FF"/>
</g>
<g filter="url(#filter1_f_77_466)">
<line x1="150.5" y1="382.5" x2="500.5" y2="382.5" stroke="white" stroke-width="5" stroke-linecap="round"/>
</g>
<g filter="url(#filter2_f_77_466)">
<line x1="215" y1="384" x2="438" y2="384" stroke="white" stroke-width="2" stroke-linecap="round"/>
</g>
<g filter="url(#filter3_f_77_466)">
<mask id="path-4-inside-1_77_466" fill="white">
<path d="M401.243 174.568C401.628 216.032 437.601 229.831 438 230.007C437.696 230.98 432.252 249.671 419.047 268.978C407.632 285.669 395.785 302.299 377.123 302.644C358.785 302.982 352.888 291.764 331.922 291.764C310.963 291.764 304.412 302.299 287.053 302.982C269.038 303.664 255.321 284.932 243.811 268.302C220.292 234.284 202.319 172.176 226.452 130.251C238.441 109.432 259.867 96.2476 283.122 95.9096C300.811 95.572 317.508 107.816 328.322 107.816C339.129 107.816 359.419 93.0915 380.75 95.254C389.679 95.6258 414.745 98.8627 430.84 122.433C429.543 123.237 400.932 139.901 401.243 174.568M366.779 72.7482C376.343 61.1661 382.78 45.0427 381.023 29C367.238 29.5543 350.568 38.1907 340.68 49.7664C331.818 60.0173 324.057 76.4245 326.151 92.1496C341.517 93.339 357.214 84.3377 366.779 72.7482"/>
</mask>
<path d="M438 230.007L443.727 231.797L445.325 226.684L440.425 224.519L438 230.007ZM419.047 268.978L414.095 265.59L414.095 265.591L419.047 268.978ZM377.123 302.644L377.233 308.643H377.233L377.123 302.644ZM287.053 302.982L287.28 308.978L287.288 308.977L287.053 302.982ZM243.811 268.302L238.876 271.714L238.877 271.717L243.811 268.302ZM226.452 130.251L221.253 127.257L221.252 127.258L226.452 130.251ZM283.122 95.9096L283.209 101.909L283.223 101.909L283.236 101.908L283.122 95.9096ZM380.75 95.254L380.144 101.223L380.322 101.241L380.5 101.249L380.75 95.254ZM430.84 122.433L434.003 127.532L439.331 124.227L435.795 119.049L430.84 122.433ZM381.023 29L386.988 28.3471L386.378 22.7798L380.782 23.0048L381.023 29ZM340.68 49.7664L345.219 53.6903L345.23 53.6769L345.242 53.6635L340.68 49.7664ZM326.151 92.1496L320.204 92.9416L320.845 97.7568L325.688 98.1317L326.151 92.1496ZM395.243 174.623C395.454 197.304 405.47 212.588 415.479 222.116C420.448 226.847 425.408 230.159 429.162 232.308C432.933 234.468 435.604 235.508 435.575 235.495L440.425 224.519C439.864 224.271 407.589 211.852 407.243 174.512L395.243 174.623ZM432.273 228.217C432.002 229.085 426.77 247.058 414.095 265.59L424 272.365C430.884 262.299 435.726 252.426 438.887 244.955C440.47 241.213 441.639 238.056 442.436 235.757C442.835 234.607 443.141 233.671 443.359 232.984C443.551 232.377 443.736 231.767 443.727 231.797L432.273 228.217ZM414.095 265.591C408.33 274.02 402.867 281.795 396.704 287.559C390.66 293.212 384.385 296.509 377.012 296.645L377.233 308.643C388.523 308.434 397.502 303.244 404.902 296.323C412.182 289.513 418.349 280.627 424 272.365L414.095 265.591ZM377.012 296.645C369.271 296.788 364.281 294.588 357.889 291.824C351.318 288.982 343.674 285.764 331.922 285.764V297.764C341.136 297.764 346.923 300.155 353.126 302.838C359.509 305.598 366.636 308.838 377.233 308.643L377.012 296.645ZM331.922 285.764C320.253 285.764 312.5 288.757 305.8 291.591C299.196 294.385 294.222 296.695 286.817 296.987L287.288 308.977C297.242 308.586 304.223 305.288 310.475 302.643C316.63 300.039 322.632 297.764 331.922 297.764V285.764ZM286.826 296.986C280.114 297.24 273.676 293.927 267.097 287.757C260.508 281.579 254.533 273.252 248.745 264.887L238.877 271.717C244.598 279.983 251.238 289.337 258.888 296.511C266.549 303.694 275.976 309.406 287.28 308.978L286.826 296.986ZM248.746 264.89C237.482 248.597 227.438 225.375 223.171 201.199C218.895 176.975 220.539 152.552 231.652 133.245L221.252 127.258C208.233 149.875 206.796 177.468 211.353 203.285C215.919 229.148 226.621 253.989 238.876 271.714L248.746 264.89ZM231.652 133.245C242.657 114.135 262.207 102.214 283.209 101.909L283.035 89.9102C257.526 90.281 234.226 104.728 221.253 127.257L231.652 133.245ZM283.236 101.908C290.784 101.764 298.399 104.314 306.119 107.326C309.805 108.764 313.724 110.389 317.255 111.589C320.779 112.787 324.608 113.816 328.322 113.816V101.816C326.629 101.816 324.316 101.315 321.116 100.227C317.921 99.1418 314.533 97.7275 310.481 96.1466C302.727 93.1212 293.149 89.7171 283.007 89.9107L283.236 101.908ZM328.322 113.816C332.155 113.816 336.309 112.556 340.099 111.197C343.767 109.881 348.598 107.88 352.698 106.342C361.644 102.985 370.941 100.29 380.144 101.223L381.355 89.2846C369.228 88.0551 357.715 91.6419 348.482 95.1066C343.491 96.9791 339.89 98.5235 336.048 99.9013C332.328 101.236 329.892 101.816 328.322 101.816V113.816ZM380.5 101.249C388.759 101.593 411.398 104.601 425.885 125.817L435.795 119.049C418.092 93.1242 390.6 89.6589 380.999 89.2592L380.5 101.249ZM427.678 117.334C427.974 117.15 427.139 117.664 427.12 117.676C426.798 117.877 426.376 118.145 425.869 118.481C424.855 119.152 423.51 120.091 421.949 121.302C418.832 123.717 414.821 127.242 410.858 131.927C402.913 141.318 395.071 155.495 395.243 174.621L407.243 174.514C406.964 143.434 432.672 128.357 434.003 127.532L427.678 117.334ZM371.405 76.5686C381.757 64.0323 388.958 46.3448 386.988 28.3471L375.059 29.6529C376.601 43.7406 370.928 58.2999 362.152 68.9279L371.405 76.5686ZM380.782 23.0048C365.123 23.6345 346.951 33.1875 336.118 45.8694L345.242 53.6635C354.185 43.1938 369.353 35.4741 381.265 34.9952L380.782 23.0048ZM336.141 45.8425C326.604 56.8748 317.806 74.9388 320.204 92.9416L332.099 91.3576C330.308 77.9101 337.033 63.1598 345.219 53.6903L336.141 45.8425ZM325.688 98.1317C343.551 99.5144 360.996 89.1816 371.406 76.5672L362.151 68.9292C353.432 79.4938 339.483 87.1636 326.614 86.1675L325.688 98.1317Z" fill="white" mask="url(#path-4-inside-1_77_466)"/>
</g>
<g filter="url(#filter4_f_77_466)">
<mask id="path-6-inside-2_77_466" fill="white">
<path d="M401.243 174.568C401.628 216.032 437.601 229.831 438 230.007C437.696 230.98 432.252 249.671 419.047 268.978C407.632 285.669 395.785 302.299 377.123 302.644C358.785 302.982 352.888 291.764 331.922 291.764C310.963 291.764 304.412 302.299 287.053 302.982C269.038 303.664 255.321 284.932 243.811 268.302C220.292 234.284 202.319 172.176 226.452 130.251C238.441 109.432 259.867 96.2476 283.122 95.9096C300.811 95.572 317.508 107.816 328.322 107.816C339.129 107.816 359.419 93.0915 380.75 95.254C389.679 95.6258 414.745 98.8627 430.84 122.433C429.543 123.237 400.932 139.901 401.243 174.568M366.779 72.7482C376.343 61.1661 382.78 45.0427 381.023 29C367.238 29.5543 350.568 38.1907 340.68 49.7664C331.818 60.0173 324.057 76.4245 326.151 92.1496C341.517 93.339 357.214 84.3377 366.779 72.7482"/>
</mask>
<path d="M438 230.007L443.727 231.797L445.325 226.684L440.425 224.519L438 230.007ZM419.047 268.978L414.095 265.59L414.095 265.591L419.047 268.978ZM377.123 302.644L377.233 308.643H377.233L377.123 302.644ZM287.053 302.982L287.28 308.978L287.288 308.977L287.053 302.982ZM243.811 268.302L238.876 271.714L238.877 271.717L243.811 268.302ZM226.452 130.251L221.253 127.257L221.252 127.258L226.452 130.251ZM283.122 95.9096L283.209 101.909L283.223 101.909L283.236 101.908L283.122 95.9096ZM380.75 95.254L380.144 101.223L380.322 101.241L380.5 101.249L380.75 95.254ZM430.84 122.433L434.003 127.532L439.331 124.227L435.795 119.049L430.84 122.433ZM381.023 29L386.988 28.3471L386.378 22.7798L380.782 23.0048L381.023 29ZM340.68 49.7664L345.219 53.6903L345.23 53.6769L345.242 53.6635L340.68 49.7664ZM326.151 92.1496L320.204 92.9416L320.845 97.7568L325.688 98.1317L326.151 92.1496ZM395.243 174.623C395.454 197.304 405.47 212.588 415.479 222.116C420.448 226.847 425.408 230.159 429.162 232.308C432.933 234.468 435.604 235.508 435.575 235.495L440.425 224.519C439.864 224.271 407.589 211.852 407.243 174.512L395.243 174.623ZM432.273 228.217C432.002 229.085 426.77 247.058 414.095 265.59L424 272.365C430.884 262.299 435.726 252.426 438.887 244.955C440.47 241.213 441.639 238.056 442.436 235.757C442.835 234.607 443.141 233.671 443.359 232.984C443.551 232.377 443.736 231.767 443.727 231.797L432.273 228.217ZM414.095 265.591C408.33 274.02 402.867 281.795 396.704 287.559C390.66 293.212 384.385 296.509 377.012 296.645L377.233 308.643C388.523 308.434 397.502 303.244 404.902 296.323C412.182 289.513 418.349 280.627 424 272.365L414.095 265.591ZM377.012 296.645C369.271 296.788 364.281 294.588 357.889 291.824C351.318 288.982 343.674 285.764 331.922 285.764V297.764C341.136 297.764 346.923 300.155 353.126 302.838C359.509 305.598 366.636 308.838 377.233 308.643L377.012 296.645ZM331.922 285.764C320.253 285.764 312.5 288.757 305.8 291.591C299.196 294.385 294.222 296.695 286.817 296.987L287.288 308.977C297.242 308.586 304.223 305.288 310.475 302.643C316.63 300.039 322.632 297.764 331.922 297.764V285.764ZM286.826 296.986C280.114 297.24 273.676 293.927 267.097 287.757C260.508 281.579 254.533 273.252 248.745 264.887L238.877 271.717C244.598 279.983 251.238 289.337 258.888 296.511C266.549 303.694 275.976 309.406 287.28 308.978L286.826 296.986ZM248.746 264.89C237.482 248.597 227.438 225.375 223.171 201.199C218.895 176.975 220.539 152.552 231.652 133.245L221.252 127.258C208.233 149.875 206.796 177.468 211.353 203.285C215.919 229.148 226.621 253.989 238.876 271.714L248.746 264.89ZM231.652 133.245C242.657 114.135 262.207 102.214 283.209 101.909L283.035 89.9102C257.526 90.281 234.226 104.728 221.253 127.257L231.652 133.245ZM283.236 101.908C290.784 101.764 298.399 104.314 306.119 107.326C309.805 108.764 313.724 110.389 317.255 111.589C320.779 112.787 324.608 113.816 328.322 113.816V101.816C326.629 101.816 324.316 101.315 321.116 100.227C317.921 99.1418 314.533 97.7275 310.481 96.1466C302.727 93.1212 293.149 89.7171 283.007 89.9107L283.236 101.908ZM328.322 113.816C332.155 113.816 336.309 112.556 340.099 111.197C343.767 109.881 348.598 107.88 352.698 106.342C361.644 102.985 370.941 100.29 380.144 101.223L381.355 89.2846C369.228 88.0551 357.715 91.6419 348.482 95.1066C343.491 96.9791 339.89 98.5235 336.048 99.9013C332.328 101.236 329.892 101.816 328.322 101.816V113.816ZM380.5 101.249C388.759 101.593 411.398 104.601 425.885 125.817L435.795 119.049C418.092 93.1242 390.6 89.6589 380.999 89.2592L380.5 101.249ZM427.678 117.334C427.974 117.15 427.139 117.664 427.12 117.676C426.798 117.877 426.376 118.145 425.869 118.481C424.855 119.152 423.51 120.091 421.949 121.302C418.832 123.717 414.821 127.242 410.858 131.927C402.913 141.318 395.071 155.495 395.243 174.621L407.243 174.514C406.964 143.434 432.672 128.357 434.003 127.532L427.678 117.334ZM371.405 76.5686C381.757 64.0323 388.958 46.3448 386.988 28.3471L375.059 29.6529C376.601 43.7406 370.928 58.2999 362.152 68.9279L371.405 76.5686ZM380.782 23.0048C365.123 23.6345 346.951 33.1875 336.118 45.8694L345.242 53.6635C354.185 43.1938 369.353 35.4741 381.265 34.9952L380.782 23.0048ZM336.141 45.8425C326.604 56.8748 317.806 74.9388 320.204 92.9416L332.099 91.3576C330.308 77.9101 337.033 63.1598 345.219 53.6903L336.141 45.8425ZM325.688 98.1317C343.551 99.5144 360.996 89.1816 371.406 76.5672L362.151 68.9292C353.432 79.4938 339.483 87.1636 326.614 86.1675L325.688 98.1317Z" fill="white" mask="url(#path-6-inside-2_77_466)"/>
</g>
<g filter="url(#filter5_f_77_466)">
<mask id="path-8-inside-3_77_466" fill="white">
<path d="M401.243 174.568C401.628 216.032 437.601 229.831 438 230.007C437.696 230.98 432.252 249.671 419.047 268.978C407.632 285.669 395.785 302.299 377.123 302.644C358.785 302.982 352.888 291.764 331.922 291.764C310.963 291.764 304.412 302.299 287.053 302.982C269.038 303.664 255.321 284.932 243.811 268.302C220.292 234.284 202.319 172.176 226.452 130.251C238.441 109.432 259.867 96.2476 283.122 95.9096C300.811 95.572 317.508 107.816 328.322 107.816C339.129 107.816 359.419 93.0915 380.75 95.254C389.679 95.6258 414.745 98.8627 430.84 122.433C429.543 123.237 400.932 139.901 401.243 174.568M366.779 72.7482C376.343 61.1661 382.78 45.0427 381.023 29C367.238 29.5543 350.568 38.1907 340.68 49.7664C331.818 60.0173 324.057 76.4245 326.151 92.1496C341.517 93.339 357.214 84.3377 366.779 72.7482"/>
</mask>
<path d="M438 230.007L441.818 231.2L442.883 227.792L439.617 226.348L438 230.007ZM419.047 268.978L415.746 266.72L415.746 266.72L419.047 268.978ZM377.123 302.644L377.196 306.643H377.196L377.123 302.644ZM287.053 302.982L287.204 306.979L287.21 306.979L287.053 302.982ZM243.811 268.302L240.521 270.577L240.522 270.578L243.811 268.302ZM226.452 130.251L222.986 128.255L222.986 128.256L226.452 130.251ZM283.122 95.9096L283.18 99.9091L283.189 99.909L283.198 99.9088L283.122 95.9096ZM380.75 95.254L380.346 99.2336L380.464 99.2456L380.583 99.2505L380.75 95.254ZM430.84 122.433L432.948 125.832L436.501 123.629L434.143 120.177L430.84 122.433ZM381.023 29L385 28.5647L384.593 24.8532L380.863 25.0032L381.023 29ZM340.68 49.7664L343.706 52.3824L343.714 52.3734L343.721 52.3644L340.68 49.7664ZM326.151 92.1496L322.186 92.6776L322.614 95.8878L325.843 96.1377L326.151 92.1496ZM397.243 174.605C397.447 196.636 407.155 211.431 416.858 220.668C421.686 225.264 426.508 228.485 430.155 230.573C431.982 231.619 433.524 232.385 434.636 232.903C435.642 233.37 436.595 233.759 436.383 233.666L439.617 226.348C439.11 226.124 405.602 213.245 405.243 174.53L397.243 174.605ZM434.182 228.814C433.9 229.716 428.597 247.929 415.746 266.72L422.349 271.236C435.907 251.413 441.492 232.244 441.818 231.2L434.182 228.814ZM415.746 266.72C410 275.121 404.419 283.081 398.07 289.02C391.801 294.884 385.074 298.496 377.049 298.645L377.196 306.643C387.833 306.447 396.362 301.572 403.535 294.862C410.629 288.227 416.68 279.526 422.349 271.236L415.746 266.72ZM377.049 298.645C368.832 298.796 363.486 296.423 357.095 293.659C350.586 290.844 343.251 287.764 331.922 287.764V295.764C341.559 295.764 347.655 298.293 353.92 301.002C360.304 303.763 367.075 306.83 377.196 306.643L377.049 298.645ZM331.922 287.764C320.65 287.764 313.189 290.637 306.579 293.433C300.034 296.202 294.725 298.677 286.895 298.985L287.21 306.979C296.739 306.604 303.385 303.471 309.696 300.801C315.941 298.159 322.235 295.764 331.922 295.764V287.764ZM286.901 298.985C279.425 299.268 272.488 295.555 265.729 289.216C258.963 282.872 252.878 274.374 247.1 266.026L240.522 270.578C246.254 278.861 252.783 288.044 260.256 295.052C267.737 302.066 276.666 307.378 287.204 306.979L286.901 298.985ZM247.101 266.027C235.672 249.496 225.518 226.004 221.201 201.546C216.878 177.057 218.488 152.106 229.919 132.247L222.986 128.256C210.284 150.321 208.813 177.386 213.323 202.937C217.839 228.519 228.431 253.09 240.521 270.577L247.101 266.027ZM229.919 132.247C241.252 112.567 261.427 100.225 283.18 99.9091L283.064 91.91C258.306 92.2699 235.631 106.296 222.986 128.255L229.919 132.247ZM283.198 99.9088C291.178 99.7565 299.121 102.448 306.846 105.463C310.593 106.924 314.424 108.515 317.898 109.696C321.369 110.875 324.945 111.816 328.322 111.816V103.816C326.292 103.816 323.726 103.227 320.472 102.121C317.222 101.016 313.745 99.5669 309.754 98.0098C302.006 94.9866 292.755 91.725 283.045 91.9103L283.198 99.9088ZM328.322 111.816C331.778 111.816 335.645 110.669 339.424 109.314C343.121 107.988 347.747 106.063 351.995 104.469C360.989 101.094 370.656 98.2511 380.346 99.2336L381.153 91.2744C369.513 90.0943 358.37 93.5323 349.184 96.9791C344.343 98.7959 340.536 100.417 336.723 101.784C332.991 103.122 330.27 103.816 328.322 103.816V111.816ZM380.583 99.2505C389.066 99.6037 412.514 102.688 427.537 124.689L434.143 120.177C416.976 95.0371 390.293 91.6479 380.916 91.2574L380.583 99.2505ZM428.732 119.034C428.903 118.928 428.283 119.308 428.177 119.374C427.869 119.566 427.463 119.824 426.974 120.148C425.996 120.796 424.692 121.706 423.174 122.882C420.143 125.232 416.24 128.662 412.385 133.219C404.663 142.346 397.077 156.075 397.243 174.604L405.243 174.532C404.953 142.257 431.629 126.651 432.948 125.832L428.732 119.034ZM369.863 75.2951C379.952 63.0769 386.899 45.9107 385 28.5647L377.047 29.4353C378.661 44.1746 372.733 59.2553 363.694 70.2013L369.863 75.2951ZM380.863 25.0032C365.828 25.6078 348.156 34.8552 337.638 47.1684L343.721 52.3644C352.979 41.5261 368.648 33.5008 381.184 32.9968L380.863 25.0032ZM337.654 47.1505C328.342 57.9223 319.89 75.4341 322.186 92.6776L330.116 91.6216C328.224 77.4149 335.294 62.1123 343.706 52.3824L337.654 47.1505ZM325.843 96.1377C342.873 97.4559 359.735 87.567 369.864 75.2942L363.694 70.2022C354.693 81.1084 340.161 89.2221 326.46 88.1616L325.843 96.1377Z" fill="white" mask="url(#path-8-inside-3_77_466)"/>
</g>
<g filter="url(#filter6_f_77_466)">
<mask id="path-10-outside-4_77_466" maskUnits="userSpaceOnUse" x="209" y="23" width="236" height="287" fill="black">
<rect fill="white" x="209" y="23" width="236" height="287"/>
<path d="M401.078 175.099C401.465 216.715 437.6 230.564 438 230.741C437.694 231.717 432.226 250.477 418.962 269.854C407.496 286.606 395.596 303.297 376.85 303.643C358.429 303.982 352.506 292.723 331.447 292.723C310.393 292.723 303.813 303.297 286.376 303.982C268.281 304.666 254.501 285.866 242.94 269.175C219.316 235.033 201.262 172.698 225.504 130.621C237.547 109.725 259.068 96.4931 282.427 96.1538C300.196 95.8149 316.968 108.104 327.83 108.104C338.686 108.104 359.067 93.3254 380.493 95.4958C389.463 95.869 414.641 99.1177 430.808 122.774C429.505 123.581 400.766 140.306 401.078 175.099M366.459 72.9079C376.066 61.2835 382.532 45.1012 380.768 29C366.921 29.5563 350.176 38.2242 340.243 49.8422C331.342 60.1305 323.546 76.5976 325.65 92.3801C341.084 93.5738 356.852 84.5397 366.459 72.9079"/>
</mask>
<path d="M438 230.741L442.772 232.233L444.105 227.971L440.02 226.167L438 230.741ZM418.962 269.854L414.836 267.029L414.836 267.029L418.962 269.854ZM376.85 303.643L376.942 308.642H376.942L376.85 303.643ZM286.376 303.982L286.565 308.978L286.572 308.978L286.376 303.982ZM242.94 269.175L238.828 272.02L238.83 272.022L242.94 269.175ZM225.504 130.621L221.172 128.124L221.171 128.125L225.504 130.621ZM282.427 96.1538L282.5 101.153L282.511 101.153L282.523 101.153L282.427 96.1538ZM380.493 95.4958L379.989 100.47L380.137 100.485L380.285 100.491L380.493 95.4958ZM430.808 122.774L433.442 127.024L437.886 124.27L434.936 119.953L430.808 122.774ZM380.768 29L385.738 28.4555L385.23 23.8167L380.567 24.004L380.768 29ZM340.243 49.8422L344.025 53.1137L344.034 53.1025L344.044 53.0913L340.243 49.8422ZM325.65 92.3801L320.694 93.0406L321.228 97.0531L325.264 97.3652L325.65 92.3801ZM396.078 175.145C396.287 197.578 406.191 212.669 416.088 222.082C421.007 226.761 425.918 230.039 429.634 232.164C433.365 234.298 435.988 235.318 435.98 235.315L440.02 226.167C439.481 225.929 406.432 213.229 406.078 175.052L396.078 175.145ZM433.228 229.248C432.95 230.136 427.659 248.297 414.836 267.029L423.088 272.678C429.956 262.646 434.789 252.8 437.945 245.347C439.525 241.614 440.691 238.467 441.485 236.178C441.883 235.033 442.187 234.102 442.404 233.421C442.599 232.806 442.773 232.229 442.772 232.233L433.228 229.248ZM414.836 267.029C409.056 275.475 403.508 283.373 397.222 289.248C391.036 295.029 384.5 298.501 376.757 298.643L376.942 308.642C387.946 308.439 396.733 303.392 404.05 296.554C411.268 289.808 417.403 280.984 423.088 272.678L414.836 267.029ZM376.757 298.643C368.736 298.791 363.541 296.494 357.121 293.72C350.552 290.882 343.033 287.723 331.447 287.723V297.723C340.92 297.723 346.892 300.194 353.155 302.9C359.567 305.671 366.543 308.833 376.942 308.642L376.757 298.643ZM331.447 287.723C319.93 287.723 312.292 290.665 305.608 293.49C299.006 296.281 293.837 298.685 286.179 298.986L286.572 308.978C296.352 308.594 303.191 305.368 309.502 302.701C315.731 300.068 321.91 297.723 331.447 297.723V287.723ZM286.187 298.985C279.051 299.255 272.327 295.724 265.626 289.446C258.917 283.16 252.859 274.715 247.05 266.328L238.83 272.022C244.582 280.327 251.195 289.628 258.789 296.743C266.392 303.866 275.605 309.393 286.565 308.978L286.187 298.985ZM247.052 266.33C235.653 249.856 225.508 226.412 221.196 202.004C216.877 177.557 218.51 152.776 229.836 133.117L221.171 128.125C208.255 150.544 206.795 177.968 211.348 203.744C215.909 229.558 226.603 254.352 238.828 272.02L247.052 266.33ZM229.836 133.118C241.057 113.647 261.016 101.465 282.5 101.153L282.355 91.1543C257.12 91.5208 234.036 105.804 221.172 128.124L229.836 133.118ZM282.523 101.153C290.327 101.004 298.145 103.636 305.903 106.66C309.636 108.116 313.527 109.729 317.045 110.923C320.557 112.116 324.273 113.104 327.83 113.104V103.104C325.956 103.104 323.502 102.555 320.26 101.454C317.022 100.355 313.573 98.9176 309.535 97.3432C301.749 94.3078 292.297 90.9647 282.332 91.1547L282.523 101.153ZM327.83 113.104C331.486 113.104 335.511 111.897 339.312 110.535C343.012 109.21 347.759 107.24 351.953 105.668C360.964 102.289 370.493 99.5084 379.989 100.47L380.997 90.5212C369.066 89.3127 357.692 92.836 348.442 96.3041C343.506 98.1548 339.783 99.7441 335.939 101.122C332.196 102.463 329.602 103.104 327.83 103.104V113.104ZM380.285 100.491C388.697 100.841 411.853 103.901 426.68 125.595L434.936 119.953C417.428 94.3348 390.228 90.8965 380.701 90.5001L380.285 100.491ZM428.174 118.524C428.408 118.379 427.68 118.827 427.616 118.866C427.299 119.063 426.883 119.327 426.383 119.658C425.384 120.32 424.053 121.247 422.507 122.445C419.421 124.835 415.447 128.325 411.522 132.961C403.655 142.251 395.909 156.251 396.078 175.144L406.078 175.054C405.792 143.252 432.11 127.85 433.442 127.024L428.174 118.524ZM370.313 76.0931C380.577 63.6737 387.681 46.1874 385.738 28.4555L375.798 29.5445C377.383 44.0151 371.555 58.8932 362.605 69.7227L370.313 76.0931ZM380.567 24.004C365.159 24.6231 347.163 34.0535 336.443 46.5931L344.044 53.0913C353.188 42.3949 368.682 34.4896 380.969 33.996L380.567 24.004ZM336.462 46.5707C326.998 57.5098 318.337 75.3584 320.694 93.0406L330.606 91.7196C328.756 77.8368 335.686 62.7512 344.025 53.1137L336.462 46.5707ZM325.264 97.3652C342.778 98.7197 360.001 88.578 370.314 76.092L362.604 69.7238C353.702 80.5013 339.391 88.4279 326.035 87.395L325.264 97.3652Z" fill="#000AFF" mask="url(#path-10-outside-4_77_466)"/>
</g>
<g filter="url(#filter7_f_77_466)">
<mask id="path-12-outside-5_77_466" maskUnits="userSpaceOnUse" x="213" y="26" width="229" height="280" fill="black">
<rect fill="white" x="213" y="26" width="229" height="280"/>
<path d="M402.078 175.099C402.465 216.715 438.6 230.564 439 230.741C438.694 231.717 433.226 250.477 419.962 269.854C408.496 286.606 396.596 303.297 377.85 303.643C359.429 303.982 353.506 292.723 332.447 292.723C311.393 292.723 304.813 303.297 287.376 303.982C269.281 304.666 255.501 285.866 243.94 269.175C220.316 235.033 202.262 172.698 226.504 130.621C238.547 109.725 260.068 96.4931 283.427 96.1538C301.196 95.8149 317.968 108.104 328.83 108.104C339.686 108.104 360.067 93.3254 381.493 95.4958C390.463 95.869 415.641 99.1177 431.808 122.774C430.505 123.581 401.766 140.306 402.078 175.099M367.459 72.9079C377.066 61.2835 383.532 45.1012 381.768 29C367.921 29.5563 351.176 38.2242 341.243 49.8422C332.342 60.1305 324.546 76.5976 326.65 92.3801C342.084 93.5738 357.852 84.5397 367.459 72.9079"/>
</mask>
<path d="M439 230.741L440.909 231.338L441.442 229.633L439.808 228.911L439 230.741ZM419.962 269.854L418.312 268.724L418.312 268.724L419.962 269.854ZM377.85 303.643L377.886 305.642H377.886L377.85 303.643ZM287.376 303.982L287.451 305.98L287.454 305.98L287.376 303.982ZM243.94 269.175L242.295 270.313L242.296 270.314L243.94 269.175ZM226.504 130.621L224.771 129.622L224.771 129.622L226.504 130.621ZM283.427 96.1538L283.456 98.1536L283.465 98.1534L283.427 96.1538ZM381.493 95.4958L381.291 97.4856L381.35 97.4916L381.41 97.494L381.493 95.4958ZM431.808 122.774L432.862 124.474L434.639 123.372L433.459 121.646L431.808 122.774ZM381.768 29L383.756 28.7822L383.553 26.9267L381.688 27.0016L381.768 29ZM341.243 49.8422L342.756 51.1508L342.764 51.1418L341.243 49.8422ZM326.65 92.3801L324.667 92.6443L324.881 94.2493L326.495 94.3741L326.65 92.3801ZM400.078 175.117C400.277 196.575 409.717 210.931 419.155 219.909C423.863 224.386 428.567 227.526 432.123 229.56C433.903 230.578 435.4 231.322 436.472 231.82C437.491 232.293 438.273 232.606 438.192 232.57L439.808 228.911C439.352 228.71 404.452 215.321 404.078 175.08L400.078 175.117ZM437.091 230.144C436.797 231.085 431.399 249.605 418.312 268.724L421.613 270.983C435.053 251.348 440.592 232.35 440.909 231.338L437.091 230.144ZM418.312 268.724C412.56 277.128 406.836 285.304 400.27 291.439C393.745 297.538 386.534 301.482 377.813 301.643L377.886 305.642C387.912 305.457 396.024 300.883 403.002 294.362C409.94 287.878 415.899 279.332 421.613 270.983L418.312 268.724ZM377.813 301.643C369.078 301.804 363.348 299.247 356.931 296.474C350.454 293.676 343.399 290.723 332.447 290.723V294.723C342.554 294.723 348.99 297.4 355.345 300.146C361.759 302.918 368.201 305.821 377.886 305.642L377.813 301.643ZM332.447 290.723C321.524 290.723 314.324 293.486 307.776 296.254C301.261 299.007 295.591 301.658 287.297 301.983L287.454 305.98C296.597 305.621 302.936 302.642 309.334 299.938C315.699 297.247 322.316 294.723 332.447 294.723V290.723ZM287.3 301.983C279.017 302.297 271.547 298.167 264.575 291.635C257.6 285.1 251.376 276.398 245.584 268.037L242.296 270.314C248.065 278.643 254.511 287.687 261.84 294.554C269.173 301.424 277.639 306.352 287.451 305.98L287.3 301.983ZM245.585 268.037C233.938 251.205 223.628 227.356 219.242 202.526C214.852 177.68 216.434 152.106 228.237 131.619L224.771 129.622C212.332 151.213 210.82 177.845 215.303 203.222C219.789 228.614 230.318 253.004 242.295 270.313L245.585 268.037ZM228.237 131.62C239.951 111.294 260.847 98.482 283.456 98.1535L283.398 94.154C259.289 94.5042 237.142 108.157 224.771 129.622L228.237 131.62ZM283.465 98.1534C291.918 97.9922 300.226 100.837 307.992 103.865C311.817 105.356 315.576 106.917 319.009 108.083C322.441 109.248 325.778 110.104 328.83 110.104V106.104C326.451 106.104 323.619 105.424 320.295 104.295C316.974 103.167 313.392 101.677 309.445 100.138C301.668 97.1062 292.706 93.9765 283.389 94.1541L283.465 98.1534ZM328.83 110.104C331.921 110.104 335.516 109.067 339.3 107.711C343.043 106.37 347.483 104.515 351.9 102.859C360.982 99.4532 371.065 96.4497 381.291 97.4856L381.694 93.506C370.495 92.3714 359.674 95.6719 350.495 99.1132C345.782 100.88 341.752 102.584 337.951 103.946C334.19 105.293 331.167 106.104 328.83 106.104V110.104ZM381.41 97.494C390.156 97.8579 414.526 101.031 430.157 123.903L433.459 121.646C416.756 97.2045 390.769 93.88 381.576 93.4975L381.41 97.494ZM430.755 121.074C429.464 121.874 399.755 139.128 400.078 175.117L404.078 175.081C403.776 141.485 431.547 125.289 432.862 124.474L430.755 121.074ZM369.001 74.1819C378.87 62.2396 385.592 45.5357 383.756 28.7822L379.78 29.2178C381.472 44.6668 375.262 60.3274 365.918 71.6338L369.001 74.1819ZM381.688 27.0016C367.216 27.583 349.971 36.5559 339.723 48.5426L342.764 51.1418C352.381 39.8925 368.625 31.5297 381.848 30.9984L381.688 27.0016ZM339.731 48.5336C330.604 59.0822 322.463 76.1019 324.667 92.6443L328.632 92.1159C326.63 77.0932 334.08 61.1788 342.756 51.1508L339.731 48.5336ZM326.495 94.3741C342.762 95.6322 359.112 86.155 369.001 74.1815L365.917 71.6343C356.592 82.9243 341.407 91.5155 326.804 90.3861L326.495 94.3741Z" fill="#00FFE0" mask="url(#path-12-outside-5_77_466)"/>
</g>
<mask id="path-14-inside-6_77_466" fill="white">
<path d="M401.243 174.568C401.628 216.032 437.601 229.831 438 230.007C437.696 230.98 432.252 249.671 419.047 268.978C407.632 285.669 395.785 302.299 377.123 302.644C358.785 302.982 352.888 291.764 331.922 291.764C310.963 291.764 304.412 302.299 287.053 302.982C269.038 303.664 255.321 284.932 243.811 268.302C220.292 234.284 202.319 172.176 226.452 130.251C238.441 109.432 259.867 96.2476 283.122 95.9096C300.811 95.572 317.508 107.816 328.322 107.816C339.129 107.816 359.419 93.0915 380.75 95.254C389.679 95.6258 414.745 98.8627 430.84 122.433C429.543 123.237 400.932 139.901 401.243 174.568M366.779 72.7482C376.343 61.1661 382.78 45.0427 381.023 29C367.238 29.5543 350.568 38.1907 340.68 49.7664C331.818 60.0173 324.057 76.4245 326.151 92.1496C341.517 93.339 357.214 84.3377 366.779 72.7482"/>
</mask>
<path d="M438 230.007L438.954 230.305L439.221 229.453L438.404 229.092L438 230.007ZM419.047 268.978L418.222 268.413L418.222 268.413L419.047 268.978ZM377.123 302.644L377.141 303.644H377.141L377.123 302.644ZM287.053 302.982L287.09 303.981L287.092 303.981L287.053 302.982ZM243.811 268.302L242.988 268.871L242.989 268.871L243.811 268.302ZM226.452 130.251L225.586 129.752L225.586 129.752L226.452 130.251ZM283.122 95.9096L283.136 96.9095L283.141 96.9094L283.122 95.9096ZM380.75 95.254L380.649 96.2489L380.678 96.2519L380.708 96.2531L380.75 95.254ZM430.84 122.433L431.367 123.283L432.255 122.732L431.666 121.869L430.84 122.433ZM381.023 29L382.018 28.8912L381.916 27.9633L380.983 28.0008L381.023 29ZM340.68 49.7664L341.436 50.4204L341.44 50.4159L340.68 49.7664ZM326.151 92.1496L325.16 92.2816L325.267 93.0842L326.074 93.1466L326.151 92.1496ZM400.243 174.577C400.438 195.634 409.682 209.695 418.927 218.495C423.543 222.889 428.158 225.972 431.646 227.969C433.391 228.968 434.855 229.696 435.901 230.182C436.919 230.655 437.611 230.929 437.596 230.922L438.404 229.092C437.979 228.904 402.621 215.336 402.243 174.558L400.243 174.577ZM437.046 229.709C436.747 230.664 431.338 249.236 418.222 268.413L419.873 269.542C433.166 250.107 438.645 231.296 438.954 230.305L437.046 229.709ZM418.222 268.413C412.505 276.773 406.748 285.011 400.12 291.211C393.511 297.392 386.109 301.478 377.104 301.644L377.141 303.644C386.799 303.465 394.652 299.064 401.486 292.671C408.301 286.297 414.175 277.874 419.873 269.542L418.222 268.413ZM377.104 301.644C368.173 301.809 362.293 299.175 355.905 296.413C349.487 293.638 342.617 290.764 331.922 290.764V292.764C342.194 292.764 348.754 295.5 355.111 298.249C361.497 301.01 367.734 303.817 377.141 303.644L377.104 301.644ZM331.922 290.764C321.244 290.764 314.221 293.458 307.748 296.196C301.291 298.928 295.48 301.65 287.013 301.983L287.092 303.981C295.984 303.632 302.129 300.745 308.527 298.038C314.909 295.338 321.641 292.764 331.922 292.764V290.764ZM287.015 301.983C278.39 302.309 270.706 297.997 263.677 291.405C256.645 284.811 250.394 276.056 244.633 267.733L242.989 268.871C248.738 277.178 255.1 286.104 262.309 292.864C269.519 299.624 277.701 304.337 287.09 303.981L287.015 301.983ZM244.633 267.733C232.957 250.844 222.638 226.947 218.247 202.068C213.854 177.181 215.411 151.437 227.319 130.75L225.586 129.752C213.36 150.99 211.837 177.263 216.277 202.415C220.719 227.576 231.146 251.742 242.988 268.871L244.633 267.733ZM227.319 130.75C239.144 110.216 260.257 97.2421 283.136 96.9095L283.107 94.9097C259.477 95.2532 237.739 108.648 225.586 129.752L227.319 130.75ZM283.141 96.9094C291.769 96.7447 300.203 99.6501 307.937 102.668C311.775 104.165 315.473 105.703 318.863 106.855C322.253 108.007 325.45 108.816 328.322 108.816V106.816C325.787 106.816 322.842 106.095 319.507 104.961C316.172 103.828 312.563 102.326 308.664 100.805C300.924 97.7847 292.164 94.7368 283.103 94.9097L283.141 96.9094ZM328.322 108.816C331.212 108.816 334.65 107.839 338.411 106.49C342.152 105.149 346.47 103.338 350.941 101.66C360.007 98.2585 370.227 95.1923 380.649 96.2489L380.851 94.2591C369.942 93.1531 359.352 96.368 350.238 99.7878C345.619 101.521 341.506 103.256 337.736 104.608C333.986 105.952 330.835 106.816 328.322 106.816V108.816ZM380.708 96.2531C389.526 96.6203 414.187 99.8191 430.014 122.997L431.666 121.869C415.303 97.9063 389.833 94.6313 380.791 94.2548L380.708 96.2531ZM430.313 121.583C429.022 122.384 399.926 139.313 400.243 174.577L402.243 174.559C401.937 140.49 430.065 124.091 431.367 123.283L430.313 121.583ZM367.55 73.3849C377.245 61.6438 383.809 45.2597 382.018 28.8912L380.029 29.1088C381.75 44.8257 375.44 60.6884 366.008 72.1115L367.55 73.3849ZM380.983 28.0008C366.885 28.5677 349.965 37.3568 339.919 49.1169L341.44 50.4159C351.171 39.0245 367.59 30.541 381.064 29.9992L380.983 28.0008ZM339.923 49.1124C330.949 59.4935 323.015 76.1769 325.16 92.2816L327.143 92.0176C325.099 76.6721 332.687 60.5411 341.436 50.4204L339.923 49.1124ZM326.074 93.1466C341.856 94.3682 357.845 85.145 367.55 73.3847L366.007 72.1117C356.584 83.5304 341.178 92.3098 326.228 91.1526L326.074 93.1466Z" fill="white" mask="url(#path-14-inside-6_77_466)"/>
<defs>
<filter id="filter0_f_77_466" x="0" y="287" width="664" height="196" filterUnits="userSpaceOnUse" color-interpolation-filters="sRGB">
<feFlood flood-opacity="0" result="BackgroundImageFix"/>
<feBlend mode="normal" in="SourceGraphic" in2="BackgroundImageFix" result="shape"/>
<feGaussianBlur stdDeviation="41.5" result="effect1_foregroundBlur_77_466"/>
</filter>
<filter id="filter1_f_77_466" x="118" y="350" width="415" height="65" filterUnits="userSpaceOnUse" color-interpolation-filters="sRGB">
<feFlood flood-opacity="0" result="BackgroundImageFix"/>
<feBlend mode="normal" in="SourceGraphic" in2="BackgroundImageFix" result="shape"/>
<feGaussianBlur stdDeviation="15" result="effect1_foregroundBlur_77_466"/>
</filter>
<filter id="filter2_f_77_466" x="189" y="358" width="275" height="52" filterUnits="userSpaceOnUse" color-interpolation-filters="sRGB">
<feFlood flood-opacity="0" result="BackgroundImageFix"/>
<feBlend mode="normal" in="SourceGraphic" in2="BackgroundImageFix" result="shape"/>
<feGaussianBlur stdDeviation="12.5" result="effect1_foregroundBlur_77_466"/>
</filter>
<filter id="filter3_f_77_466" x="207" y="21" width="239" height="290" filterUnits="userSpaceOnUse" color-interpolation-filters="sRGB">
<feFlood flood-opacity="0" result="BackgroundImageFix"/>
<feBlend mode="normal" in="SourceGraphic" in2="BackgroundImageFix" result="shape"/>
<feGaussianBlur stdDeviation="4" result="effect1_foregroundBlur_77_466"/>
</filter>
<filter id="filter4_f_77_466" x="206" y="20" width="241" height="292" filterUnits="userSpaceOnUse" color-interpolation-filters="sRGB">
<feFlood flood-opacity="0" result="BackgroundImageFix"/>
<feBlend mode="normal" in="SourceGraphic" in2="BackgroundImageFix" result="shape"/>
<feGaussianBlur stdDeviation="4.5" result="effect1_foregroundBlur_77_466"/>
</filter>
<filter id="filter5_f_77_466" x="211" y="25" width="231" height="282" filterUnits="userSpaceOnUse" color-interpolation-filters="sRGB">
<feFlood flood-opacity="0" result="BackgroundImageFix"/>
<feBlend mode="normal" in="SourceGraphic" in2="BackgroundImageFix" result="shape"/>
<feGaussianBlur stdDeviation="2" result="effect1_foregroundBlur_77_466"/>
</filter>
<filter id="filter6_f_77_466" x="186.001" y="0.81665" width="281.105" height="331.184" filterUnits="userSpaceOnUse" color-interpolation-filters="sRGB">
<feFlood flood-opacity="0" result="BackgroundImageFix"/>
<feBlend mode="normal" in="SourceGraphic" in2="BackgroundImageFix" result="shape"/>
<feGaussianBlur stdDeviation="11.5" result="effect1_foregroundBlur_77_466"/>
</filter>
<filter id="filter7_f_77_466" x="206" y="19.9268" width="242.442" height="293.073" filterUnits="userSpaceOnUse" color-interpolation-filters="sRGB">
<feFlood flood-opacity="0" result="BackgroundImageFix"/>
<feBlend mode="normal" in="SourceGraphic" in2="BackgroundImageFix" result="shape"/>
<feGaussianBlur stdDeviation="3.5" result="effect1_foregroundBlur_77_466"/>
</filter>
</defs>
</svg>
