<svg width="25" height="29" viewBox="0 0 25 29" fill="none" xmlns="http://www.w3.org/2000/svg">
<g clip-path="url(#clip0_38_25)">
<path d="M17.0166 4.62519C17.597 3.99344 18.0395 3.25963 18.3188 2.4659C18.5981 1.67218 18.7086 0.83417 18.644 0C16.8621 0.135837 15.208 0.927295 14.0381 2.20385C13.4779 2.81568 13.0534 3.52744 12.7897 4.297C12.5259 5.06656 12.4284 5.87826 12.5028 6.68406C13.372 6.6909 14.2312 6.50876 15.0139 6.15174C15.7966 5.79472 16.4819 5.27239 17.0166 4.62519ZM20.8855 15.4125C20.8958 14.3015 21.2056 13.2113 21.7858 12.2447C22.3661 11.2782 23.1975 10.4672 24.2017 9.88834C23.5679 9.026 22.7302 8.31495 21.7548 7.81161C20.7794 7.30826 19.6933 7.02645 18.5825 6.98854C16.1875 6.75655 13.9767 8.30795 12.7024 8.30795C11.4282 8.30795 9.63188 7.01753 7.63602 7.04653C6.33123 7.08712 5.05986 7.44639 3.9459 8.08928C2.83195 8.73218 1.91344 9.63676 1.27998 10.7148C-1.42211 15.1515 0.589102 21.7486 3.29119 25.3298C4.51941 27.0842 6.05469 29.0706 8.08125 28.9981C10.1078 28.9256 10.768 27.8092 13.117 27.8092C15.4659 27.8092 16.1875 28.9981 18.1834 28.9546C20.1792 28.9111 21.5917 27.1567 22.8813 25.4023C23.7949 24.1286 24.5085 22.7368 25 21.2701C23.7833 20.78 22.7452 19.9641 22.0139 18.9231C21.2827 17.8822 20.8904 16.6617 20.8855 15.4125Z" fill="white"/>
</g>
<defs>
<clipPath id="clip0_38_25">
<rect width="25" height="29" fill="white"/>
</clipPath>
</defs>
</svg>
